# xmcd CD database file
#
# Track frame offsets:
#	150
#	1432
#	18453
#	33784
#	44637
#	60012
#	60604
#	80719
#	97656
#	109595
#	124426
#	138551
#	162284
#
# Disc length: 2545 seconds
#
# Revision: 0
# Processed by: cddbd v1.5.2PL0 Copyright (c) Steve Scherf et al.
# Submitted via: CDex 1.51
#
DISCID=a109ef0d
DTITLE=Casper McWade - Hello Lonesome
DYEAR=2018
DGENRE=Country
TTITLE0=Missed Call
TTITLE1=Hello Lonesome
TTITLE2=Loneliness is My Only True Friend
TTITLE3=The Rooster
TTITLE4=When I'm Sober
TTITLE5=Home Safely
TTITLE6=In My Dreams
TTITLE7=Tell Me Everything's Alright
TTITLE8=My Oh My
TTITLE9=The Forgotten Son
TTITLE10=You Don't Cheat Fair
TTITLE11=Silver Buttons
TTITLE12=Safe and Sound
EXTD=YEAR: 2018
EXTT0=
EXTT1=
EXTT2=
EXTT3=
EXTT4=
EXTT5=
EXTT6=
EXTT7=
EXTT8=
EXTT9=
EXTT10=
EXTT11=
EXTT12=
PLAYORDER=
